<?xml version="1.0" encoding="utf-8" standalone="no"?>
<!DOCTYPE svg PUBLIC "-//W3C//DTD SVG 1.1//EN"
  "http://www.w3.org/Graphics/SVG/1.1/DTD/svg11.dtd">
<svg xmlns:xlink="http://www.w3.org/1999/xlink" width="432pt" height="432pt" viewBox="0 0 432 432" xmlns="http://www.w3.org/2000/svg" version="1.1">
 <metadata>
  <rdf:RDF xmlns:dc="http://purl.org/dc/elements/1.1/" xmlns:cc="http://creativecommons.org/ns#" xmlns:rdf="http://www.w3.org/1999/02/22-rdf-syntax-ns#">
   <cc:Work>
    <dc:type rdf:resource="http://purl.org/dc/dcmitype/StillImage"/>
    <dc:date>2024-02-24T21:48:32.518511</dc:date>
    <dc:format>image/svg+xml</dc:format>
    <dc:creator>
     <cc:Agent>
      <dc:title>Matplotlib v3.8.0, https://matplotlib.org/</dc:title>
     </cc:Agent>
    </dc:creator>
   </cc:Work>
  </rdf:RDF>
 </metadata>
 <defs>
  <style type="text/css">*{stroke-linejoin: round; stroke-linecap: butt}</style>
 </defs>
 <g id="figure_1">
  <g id="patch_1">
   <path d="M 0 432 
L 432 432 
L 432 0 
L 0 0 
L 0 432 
z
" style="fill: none"/>
  </g>
  <g id="axes_1">
   <g id="patch_2">
    <path d="M 384.48 214.92 
C 384.48 193.504531 380.261619 172.2973 372.066274 152.511986 
C 363.870929 132.726672 351.857997 114.74805 336.714974 99.605026 
C 321.57195 84.462003 303.593328 72.449071 283.808014 64.253726 
C 264.0227 56.058381 242.815469 51.84 221.4 51.84 
C 199.984531 51.84 178.7773 56.058381 158.991986 64.253726 
C 139.206672 72.449071 121.22805 84.462003 106.085026 99.605026 
C 90.942003 114.74805 78.929071 132.726672 70.733726 152.511986 
C 62.538381 172.2973 58.32 193.504531 58.32 214.92 
C 58.32 236.335469 62.538381 257.5427 70.733726 277.328014 
C 78.929071 297.113328 90.942003 315.09195 106.085026 330.234974 
C 121.22805 345.377997 139.206672 357.390929 158.991986 365.586274 
C 178.7773 373.781619 199.984531 378 221.4 378 
C 242.815469 378 264.0227 373.781619 283.808014 365.586274 
C 303.593328 357.390929 321.57195 345.377997 336.714974 330.234974 
C 351.857997 315.09195 363.870929 297.113328 372.066274 277.328014 
C 380.261619 257.5427 384.48 236.335469 384.48 214.92 
M 221.4 214.92 
C 221.4 214.92 221.4 214.92 221.4 214.92 
C 221.4 214.92 221.4 214.92 221.4 214.92 
C 221.4 214.92 221.4 214.92 221.4 214.92 
C 221.4 214.92 221.4 214.92 221.4 214.92 
C 221.4 214.92 221.4 214.92 221.4 214.92 
C 221.4 214.92 221.4 214.92 221.4 214.92 
C 221.4 214.92 221.4 214.92 221.4 214.92 
C 221.4 214.92 221.4 214.92 221.4 214.92 
C 221.4 214.92 221.4 214.92 221.4 214.92 
C 221.4 214.92 221.4 214.92 221.4 214.92 
C 221.4 214.92 221.4 214.92 221.4 214.92 
C 221.4 214.92 221.4 214.92 221.4 214.92 
C 221.4 214.92 221.4 214.92 221.4 214.92 
C 221.4 214.92 221.4 214.92 221.4 214.92 
C 221.4 214.92 221.4 214.92 221.4 214.92 
C 221.4 214.92 221.4 214.92 221.4 214.92 
z
" style="fill: #ffffff"/>
   </g>
   <g id="patch_3">
    <path d="M 329.0328 214.92 
L 153.7218 97.697919 
L 194.4918 261.52637 
L 329.0328 214.92 
z
" clip-path="url(#pd088721c9f)" style="fill: #1f77b4; opacity: 0.25"/>
   </g>
   <g id="matplotlib.axis_1">
    <g id="xtick_1">
     <g id="line2d_1">
      <path d="M 221.4 214.92 
L 384.48 214.92 
" clip-path="url(#pd088721c9f)" style="fill: none; stroke: #b0b0b0; stroke-width: 0.8; stroke-linecap: square"/>
     </g>
     <g id="text_1">
      <!-- Completeness -->
      <g transform="translate(362.927656 217.679375) scale(0.1 -0.1)">
       <defs>
        <path id="DejaVuSans-43" d="M 4122 4306 
L 4122 3641 
Q 3803 3938 3442 4084 
Q 3081 4231 2675 4231 
Q 1875 4231 1450 3742 
Q 1025 3253 1025 2328 
Q 1025 1406 1450 917 
Q 1875 428 2675 428 
Q 3081 428 3442 575 
Q 3803 722 4122 1019 
L 4122 359 
Q 3791 134 3420 21 
Q 3050 -91 2638 -91 
Q 1578 -91 968 557 
Q 359 1206 359 2328 
Q 359 3453 968 4101 
Q 1578 4750 2638 4750 
Q 3056 4750 3426 4639 
Q 3797 4528 4122 4306 
z
" transform="scale(0.015625)"/>
        <path id="DejaVuSans-6f" d="M 1959 3097 
Q 1497 3097 1228 2736 
Q 959 2375 959 1747 
Q 959 1119 1226 758 
Q 1494 397 1959 397 
Q 2419 397 2687 759 
Q 2956 1122 2956 1747 
Q 2956 2369 2687 2733 
Q 2419 3097 1959 3097 
z
M 1959 3584 
Q 2709 3584 3137 3096 
Q 3566 2609 3566 1747 
Q 3566 888 3137 398 
Q 2709 -91 1959 -91 
Q 1206 -91 779 398 
Q 353 888 353 1747 
Q 353 2609 779 3096 
Q 1206 3584 1959 3584 
z
" transform="scale(0.015625)"/>
        <path id="DejaVuSans-6d" d="M 3328 2828 
Q 3544 3216 3844 3400 
Q 4144 3584 4550 3584 
Q 5097 3584 5394 3201 
Q 5691 2819 5691 2113 
L 5691 0 
L 5113 0 
L 5113 2094 
Q 5113 2597 4934 2840 
Q 4756 3084 4391 3084 
Q 3944 3084 3684 2787 
Q 3425 2491 3425 1978 
L 3425 0 
L 2847 0 
L 2847 2094 
Q 2847 2600 2669 2842 
Q 2491 3084 2119 3084 
Q 1678 3084 1418 2786 
Q 1159 2488 1159 1978 
L 1159 0 
L 581 0 
L 581 3500 
L 1159 3500 
L 1159 2956 
Q 1356 3278 1631 3431 
Q 1906 3584 2284 3584 
Q 2666 3584 2933 3390 
Q 3200 3197 3328 2828 
z
" transform="scale(0.015625)"/>
        <path id="DejaVuSans-70" d="M 1159 525 
L 1159 -1331 
L 581 -1331 
L 581 3500 
L 1159 3500 
L 1159 2969 
Q 1341 3281 1617 3432 
Q 1894 3584 2278 3584 
Q 2916 3584 3314 3078 
Q 3713 2572 3713 1747 
Q 3713 922 3314 415 
Q 2916 -91 2278 -91 
Q 1894 -91 1617 61 
Q 1341 213 1159 525 
z
M 3116 1747 
Q 3116 2381 2855 2742 
Q 2594 3103 2138 3103 
Q 1681 3103 1420 2742 
Q 1159 2381 1159 1747 
Q 1159 1113 1420 752 
Q 1681 391 2138 391 
Q 2594 391 2855 752 
Q 3116 1113 3116 1747 
z
" transform="scale(0.015625)"/>
        <path id="DejaVuSans-6c" d="M 603 4863 
L 1178 4863 
L 1178 0 
L 603 0 
L 603 4863 
z
" transform="scale(0.015625)"/>
        <path id="DejaVuSans-65" d="M 3597 1894 
L 3597 1613 
L 953 1613 
Q 991 1019 1311 708 
Q 1631 397 2203 397 
Q 2534 397 2845 478 
Q 3156 559 3463 722 
L 3463 178 
Q 3153 47 2828 -22 
Q 2503 -91 2169 -91 
Q 1331 -91 842 396 
Q 353 884 353 1716 
Q 353 2575 817 3079 
Q 1281 3584 2069 3584 
Q 2775 3584 3186 3129 
Q 3597 2675 3597 1894 
z
M 3022 2063 
Q 3016 2534 2758 2815 
Q 2500 3097 2075 3097 
Q 1594 3097 1305 2825 
Q 1016 2553 972 2059 
L 3022 2063 
z
" transform="scale(0.015625)"/>
        <path id="DejaVuSans-74" d="M 1172 4494 
L 1172 3500 
L 2356 3500 
L 2356 3053 
L 1172 3053 
L 1172 1153 
Q 1172 725 1289 603 
Q 1406 481 1766 481 
L 2356 481 
L 2356 0 
L 1766 0 
Q 1100 0 847 248 
Q 594 497 594 1153 
L 594 3053 
L 172 3053 
L 172 3500 
L 594 3500 
L 594 4494 
L 1172 4494 
z
" transform="scale(0.015625)"/>
        <path id="DejaVuSans-6e" d="M 3513 2113 
L 3513 0 
L 2938 0 
L 2938 2094 
Q 2938 2591 2744 2837 
Q 2550 3084 2163 3084 
Q 1697 3084 1428 2787 
Q 1159 2491 1159 1978 
L 1159 0 
L 581 0 
L 581 3500 
L 1159 3500 
L 1159 2956 
Q 1366 3272 1645 3428 
Q 1925 3584 2291 3584 
Q 2894 3584 3203 3211 
Q 3513 2838 3513 2113 
z
" transform="scale(0.015625)"/>
        <path id="DejaVuSans-73" d="M 2834 3397 
L 2834 2853 
Q 2591 2978 2328 3040 
Q 2066 3103 1784 3103 
Q 1356 3103 1142 2972 
Q 928 2841 928 2578 
Q 928 2378 1081 2264 
Q 1234 2150 1697 2047 
L 1894 2003 
Q 2506 1872 2764 1633 
Q 3022 1394 3022 966 
Q 3022 478 2636 193 
Q 2250 -91 1575 -91 
Q 1294 -91 989 -36 
Q 684 19 347 128 
L 347 722 
Q 666 556 975 473 
Q 1284 391 1588 391 
Q 1994 391 2212 530 
Q 2431 669 2431 922 
Q 2431 1156 2273 1281 
Q 2116 1406 1581 1522 
L 1381 1569 
Q 847 1681 609 1914 
Q 372 2147 372 2553 
Q 372 3047 722 3315 
Q 1072 3584 1716 3584 
Q 2034 3584 2315 3537 
Q 2597 3491 2834 3397 
z
" transform="scale(0.015625)"/>
       </defs>
       <use xlink:href="#DejaVuSans-43"/>
       <use xlink:href="#DejaVuSans-6f" x="69.824219"/>
       <use xlink:href="#DejaVuSans-6d" x="131.005859"/>
       <use xlink:href="#DejaVuSans-70" x="228.417969"/>
       <use xlink:href="#DejaVuSans-6c" x="291.894531"/>
       <use xlink:href="#DejaVuSans-65" x="319.677734"/>
       <use xlink:href="#DejaVuSans-74" x="381.201172"/>
       <use xlink:href="#DejaVuSans-65" x="420.410156"/>
       <use xlink:href="#DejaVuSans-6e" x="481.933594"/>
       <use xlink:href="#DejaVuSans-65" x="545.3125"/>
       <use xlink:href="#DejaVuSans-73" x="606.835938"/>
       <use xlink:href="#DejaVuSans-73" x="658.935547"/>
      </g>
     </g>
    </g>
    <g id="xtick_2">
     <g id="line2d_2">
      <path d="M 221.4 214.92 
L 139.86 73.688577 
" clip-path="url(#pd088721c9f)" style="fill: none; stroke: #b0b0b0; stroke-width: 0.8; stroke-linecap: square"/>
     </g>
     <g id="text_2">
      <!-- Duplicity -->
      <g transform="translate(110.831094 64.323596) scale(0.1 -0.1)">
       <defs>
        <path id="DejaVuSans-44" d="M 1259 4147 
L 1259 519 
L 2022 519 
Q 2988 519 3436 956 
Q 3884 1394 3884 2338 
Q 3884 3275 3436 3711 
Q 2988 4147 2022 4147 
L 1259 4147 
z
M 628 4666 
L 1925 4666 
Q 3281 4666 3915 4102 
Q 4550 3538 4550 2338 
Q 4550 1131 3912 565 
Q 3275 0 1925 0 
L 628 0 
L 628 4666 
z
" transform="scale(0.015625)"/>
        <path id="DejaVuSans-75" d="M 544 1381 
L 544 3500 
L 1119 3500 
L 1119 1403 
Q 1119 906 1312 657 
Q 1506 409 1894 409 
Q 2359 409 2629 706 
Q 2900 1003 2900 1516 
L 2900 3500 
L 3475 3500 
L 3475 0 
L 2900 0 
L 2900 538 
Q 2691 219 2414 64 
Q 2138 -91 1772 -91 
Q 1169 -91 856 284 
Q 544 659 544 1381 
z
M 1991 3584 
L 1991 3584 
z
" transform="scale(0.015625)"/>
        <path id="DejaVuSans-69" d="M 603 3500 
L 1178 3500 
L 1178 0 
L 603 0 
L 603 3500 
z
M 603 4863 
L 1178 4863 
L 1178 4134 
L 603 4134 
L 603 4863 
z
" transform="scale(0.015625)"/>
        <path id="DejaVuSans-63" d="M 3122 3366 
L 3122 2828 
Q 2878 2963 2633 3030 
Q 2388 3097 2138 3097 
Q 1578 3097 1268 2742 
Q 959 2388 959 1747 
Q 959 1106 1268 751 
Q 1578 397 2138 397 
Q 2388 397 2633 464 
Q 2878 531 3122 666 
L 3122 134 
Q 2881 22 2623 -34 
Q 2366 -91 2075 -91 
Q 1284 -91 818 406 
Q 353 903 353 1747 
Q 353 2603 823 3093 
Q 1294 3584 2113 3584 
Q 2378 3584 2631 3529 
Q 2884 3475 3122 3366 
z
" transform="scale(0.015625)"/>
        <path id="DejaVuSans-79" d="M 2059 -325 
Q 1816 -950 1584 -1140 
Q 1353 -1331 966 -1331 
L 506 -1331 
L 506 -850 
L 844 -850 
Q 1081 -850 1212 -737 
Q 1344 -625 1503 -206 
L 1606 56 
L 191 3500 
L 800 3500 
L 1894 763 
L 2988 3500 
L 3597 3500 
L 2059 -325 
z
" transform="scale(0.015625)"/>
       </defs>
       <use xlink:href="#DejaVuSans-44"/>
       <use xlink:href="#DejaVuSans-75" x="77.001953"/>
       <use xlink:href="#DejaVuSans-70" x="140.380859"/>
       <use xlink:href="#DejaVuSans-6c" x="203.857422"/>
       <use xlink:href="#DejaVuSans-69" x="231.640625"/>
       <use xlink:href="#DejaVuSans-63" x="259.423828"/>
       <use xlink:href="#DejaVuSans-69" x="314.404297"/>
       <use xlink:href="#DejaVuSans-74" x="342.1875"/>
       <use xlink:href="#DejaVuSans-79" x="381.396484"/>
      </g>
     </g>
    </g>
    <g id="xtick_3">
     <g id="line2d_3">
      <path d="M 221.4 214.92 
L 139.86 356.151423 
" clip-path="url(#pd088721c9f)" style="fill: none; stroke: #b0b0b0; stroke-width: 0.8; stroke-linecap: square"/>
     </g>
     <g id="text_3">
      <!-- Precision -->
      <g transform="translate(110.552969 371.035154) scale(0.1 -0.1)">
       <defs>
        <path id="DejaVuSans-50" d="M 1259 4147 
L 1259 2394 
L 2053 2394 
Q 2494 2394 2734 2622 
Q 2975 2850 2975 3272 
Q 2975 3691 2734 3919 
Q 2494 4147 2053 4147 
L 1259 4147 
z
M 628 4666 
L 2053 4666 
Q 2838 4666 3239 4311 
Q 3641 3956 3641 3272 
Q 3641 2581 3239 2228 
Q 2838 1875 2053 1875 
L 1259 1875 
L 1259 0 
L 628 0 
L 628 4666 
z
" transform="scale(0.015625)"/>
        <path id="DejaVuSans-72" d="M 2631 2963 
Q 2534 3019 2420 3045 
Q 2306 3072 2169 3072 
Q 1681 3072 1420 2755 
Q 1159 2438 1159 1844 
L 1159 0 
L 581 0 
L 581 3500 
L 1159 3500 
L 1159 2956 
Q 1341 3275 1631 3429 
Q 1922 3584 2338 3584 
Q 2397 3584 2469 3576 
Q 2541 3569 2628 3553 
L 2631 2963 
z
" transform="scale(0.015625)"/>
       </defs>
       <use xlink:href="#DejaVuSans-50"/>
       <use xlink:href="#DejaVuSans-72" x="58.552734"/>
       <use xlink:href="#DejaVuSans-65" x="97.416016"/>
       <use xlink:href="#DejaVuSans-63" x="158.939453"/>
       <use xlink:href="#DejaVuSans-69" x="213.919922"/>
       <use xlink:href="#DejaVuSans-73" x="241.703125"/>
       <use xlink:href="#DejaVuSans-69" x="293.802734"/>
       <use xlink:href="#DejaVuSans-6f" x="321.585938"/>
       <use xlink:href="#DejaVuSans-6e" x="382.767578"/>
      </g>
     </g>
    </g>
    <g id="xtick_4">
     <g id="line2d_4">
      <path d="M 221.4 214.92 
L 384.48 214.92 
" clip-path="url(#pd088721c9f)" style="fill: none; stroke: #b0b0b0; stroke-width: 0.8; stroke-linecap: square"/>
     </g>
     <g id="text_4">
      <!-- Completeness -->
      <g transform="translate(362.927656 217.679375) scale(0.1 -0.1)">
       <use xlink:href="#DejaVuSans-43"/>
       <use xlink:href="#DejaVuSans-6f" x="69.824219"/>
       <use xlink:href="#DejaVuSans-6d" x="131.005859"/>
       <use xlink:href="#DejaVuSans-70" x="228.417969"/>
       <use xlink:href="#DejaVuSans-6c" x="291.894531"/>
       <use xlink:href="#DejaVuSans-65" x="319.677734"/>
       <use xlink:href="#DejaVuSans-74" x="381.201172"/>
       <use xlink:href="#DejaVuSans-65" x="420.410156"/>
       <use xlink:href="#DejaVuSans-6e" x="481.933594"/>
       <use xlink:href="#DejaVuSans-65" x="545.3125"/>
       <use xlink:href="#DejaVuSans-73" x="606.835938"/>
       <use xlink:href="#DejaVuSans-73" x="658.935547"/>
      </g>
     </g>
    </g>
   </g>
   <g id="matplotlib.axis_2">
    <g id="ytick_1">
     <g id="line2d_5">
      <path d="M 237.708 214.92 
C 237.708 212.778453 237.286162 210.65773 236.466627 208.679199 
C 235.647093 206.700667 234.4458 204.902805 232.931497 203.388503 
C 231.417195 201.8742 229.619333 200.672907 227.640801 199.853373 
C 225.66227 199.033838 223.541547 198.612 221.4 198.612 
C 219.258453 198.612 217.13773 199.033838 215.159199 199.853373 
C 213.180667 200.672907 211.382805 201.8742 209.868503 203.388503 
C 208.3542 204.902805 207.152907 206.700667 206.333373 208.679199 
C 205.513838 210.65773 205.092 212.778453 205.092 214.92 
C 205.092 217.061547 205.513838 219.18227 206.333373 221.160801 
C 207.152907 223.139333 208.3542 224.937195 209.868503 226.451497 
C 211.382805 227.9658 213.180667 229.167093 215.159199 229.986627 
C 217.13773 230.806162 219.258453 231.228 221.4 231.228 
C 223.541547 231.228 225.66227 230.806162 227.640801 229.986627 
C 229.619333 229.167093 231.417195 227.9658 232.931497 226.451497 
C 234.4458 224.937195 235.647093 223.139333 236.466627 221.160801 
C 237.286162 219.18227 237.708 217.061547 237.708 214.92 
" clip-path="url(#pd088721c9f)" style="fill: none; stroke: #b0b0b0; stroke-width: 0.8; stroke-linecap: square"/>
     </g>
     <g id="text_5">
      <!-- 0.1 -->
      <g transform="translate(236.466627 206.599511) scale(0.1 -0.1)">
       <defs>
        <path id="DejaVuSans-30" d="M 2034 4250 
Q 1547 4250 1301 3770 
Q 1056 3291 1056 2328 
Q 1056 1369 1301 889 
Q 1547 409 2034 409 
Q 2525 409 2770 889 
Q 3016 1369 3016 2328 
Q 3016 3291 2770 3770 
Q 2525 4250 2034 4250 
z
M 2034 4750 
Q 2819 4750 3233 4129 
Q 3647 3509 3647 2328 
Q 3647 1150 3233 529 
Q 2819 -91 2034 -91 
Q 1250 -91 836 529 
Q 422 1150 422 2328 
Q 422 3509 836 4129 
Q 1250 4750 2034 4750 
z
" transform="scale(0.015625)"/>
        <path id="DejaVuSans-2e" d="M 684 794 
L 1344 794 
L 1344 0 
L 684 0 
L 684 794 
z
" transform="scale(0.015625)"/>
        <path id="DejaVuSans-31" d="M 794 531 
L 1825 531 
L 1825 4091 
L 703 3866 
L 703 4441 
L 1819 4666 
L 2450 4666 
L 2450 531 
L 3481 531 
L 3481 0 
L 794 0 
L 794 531 
z
" transform="scale(0.015625)"/>
       </defs>
       <use xlink:href="#DejaVuSans-30"/>
       <use xlink:href="#DejaVuSans-2e" x="63.623047"/>
       <use xlink:href="#DejaVuSans-31" x="95.410156"/>
      </g>
     </g>
    </g>
    <g id="ytick_2">
     <g id="line2d_6">
      <path d="M 254.016 214.92 
C 254.016 210.636906 253.172324 206.39546 251.533255 202.438397 
C 249.894186 198.481334 247.491599 194.88561 244.462995 191.857005 
C 241.43439 188.828401 237.838666 186.425814 233.881603 184.786745 
C 229.92454 183.147676 225.683094 182.304 221.4 182.304 
C 217.116906 182.304 212.87546 183.147676 208.918397 184.786745 
C 204.961334 186.425814 201.36561 188.828401 198.337005 191.857005 
C 195.308401 194.88561 192.905814 198.481334 191.266745 202.438397 
C 189.627676 206.39546 188.784 210.636906 188.784 214.92 
C 188.784 219.203094 189.627676 223.44454 191.266745 227.401603 
C 192.905814 231.358666 195.308401 234.95439 198.337005 237.982995 
C 201.36561 241.011599 204.961334 243.414186 208.918397 245.053255 
C 212.87546 246.692324 217.116906 247.536 221.4 247.536 
C 225.683094 247.536 229.92454 246.692324 233.881603 245.053255 
C 237.838666 243.414186 241.43439 241.011599 244.462995 237.982995 
C 247.491599 234.95439 249.894186 231.358666 251.533255 227.401603 
C 253.172324 223.44454 254.016 219.203094 254.016 214.92 
" clip-path="url(#pd088721c9f)" style="fill: none; stroke: #b0b0b0; stroke-width: 0.8; stroke-linecap: square"/>
     </g>
     <g id="text_6">
      <!-- 0.2 -->
      <g transform="translate(251.533255 200.35871) scale(0.1 -0.1)">
       <defs>
        <path id="DejaVuSans-32" d="M 1228 531 
L 3431 531 
L 3431 0 
L 469 0 
L 469 531 
Q 828 903 1448 1529 
Q 2069 2156 2228 2338 
Q 2531 2678 2651 2914 
Q 2772 3150 2772 3378 
Q 2772 3750 2511 3984 
Q 2250 4219 1831 4219 
Q 1534 4219 1204 4116 
Q 875 4013 500 3803 
L 500 4441 
Q 881 4594 1212 4672 
Q 1544 4750 1819 4750 
Q 2544 4750 2975 4387 
Q 3406 4025 3406 3419 
Q 3406 3131 3298 2873 
Q 3191 2616 2906 2266 
Q 2828 2175 2409 1742 
Q 1991 1309 1228 531 
z
" transform="scale(0.015625)"/>
       </defs>
       <use xlink:href="#DejaVuSans-30"/>
       <use xlink:href="#DejaVuSans-2e" x="63.623047"/>
       <use xlink:href="#DejaVuSans-32" x="95.410156"/>
      </g>
     </g>
    </g>
    <g id="ytick_3">
     <g id="line2d_7">
      <path d="M 270.324 214.92 
C 270.324 208.495359 269.058486 202.13319 266.599882 196.197596 
C 264.141279 190.262002 260.537399 184.868415 255.994492 180.325508 
C 251.451585 175.782601 246.057998 172.178721 240.122404 169.720118 
C 234.18681 167.261514 227.824641 165.996 221.4 165.996 
C 214.975359 165.996 208.61319 167.261514 202.677596 169.720118 
C 196.742002 172.178721 191.348415 175.782601 186.805508 180.325508 
C 182.262601 184.868415 178.658721 190.262002 176.200118 196.197596 
C 173.741514 202.13319 172.476 208.495359 172.476 214.92 
C 172.476 221.344641 173.741514 227.70681 176.200118 233.642404 
C 178.658721 239.577998 182.262601 244.971585 186.805508 249.514492 
C 191.348415 254.057399 196.742002 257.661279 202.677596 260.119882 
C 208.61319 262.578486 214.975359 263.844 221.4 263.844 
C 227.824641 263.844 234.18681 262.578486 240.122404 260.119882 
C 246.057998 257.661279 251.451585 254.057399 255.994492 249.514492 
C 260.537399 244.971585 264.141279 239.577998 266.599882 233.642404 
C 269.058486 227.70681 270.324 221.344641 270.324 214.92 
" clip-path="url(#pd088721c9f)" style="fill: none; stroke: #b0b0b0; stroke-width: 0.8; stroke-linecap: square"/>
     </g>
     <g id="text_7">
      <!-- 0.3 -->
      <g transform="translate(266.599882 194.117908) scale(0.1 -0.1)">
       <defs>
        <path id="DejaVuSans-33" d="M 2597 2516 
Q 3050 2419 3304 2112 
Q 3559 1806 3559 1356 
Q 3559 666 3084 287 
Q 2609 -91 1734 -91 
Q 1441 -91 1130 -33 
Q 819 25 488 141 
L 488 750 
Q 750 597 1062 519 
Q 1375 441 1716 441 
Q 2309 441 2620 675 
Q 2931 909 2931 1356 
Q 2931 1769 2642 2001 
Q 2353 2234 1838 2234 
L 1294 2234 
L 1294 2753 
L 1863 2753 
Q 2328 2753 2575 2939 
Q 2822 3125 2822 3475 
Q 2822 3834 2567 4026 
Q 2313 4219 1838 4219 
Q 1578 4219 1281 4162 
Q 984 4106 628 3988 
L 628 4550 
Q 988 4650 1302 4700 
Q 1616 4750 1894 4750 
Q 2613 4750 3031 4423 
Q 3450 4097 3450 3541 
Q 3450 3153 3228 2886 
Q 3006 2619 2597 2516 
z
" transform="scale(0.015625)"/>
       </defs>
       <use xlink:href="#DejaVuSans-30"/>
       <use xlink:href="#DejaVuSans-2e" x="63.623047"/>
       <use xlink:href="#DejaVuSans-33" x="95.410156"/>
      </g>
     </g>
    </g>
    <g id="ytick_4">
     <g id="line2d_8">
      <path d="M 286.632 214.92 
C 286.632 206.353812 284.944648 197.87092 281.66651 189.956794 
C 278.388372 182.042669 273.583199 174.85122 267.52599 168.79401 
C 261.46878 162.736801 254.277331 157.931628 246.363206 154.65349 
C 238.44908 151.375352 229.966188 149.688 221.4 149.688 
C 212.833812 149.688 204.35092 151.375352 196.436794 154.65349 
C 188.522669 157.931628 181.33122 162.736801 175.27401 168.79401 
C 169.216801 174.85122 164.411628 182.042669 161.13349 189.956794 
C 157.855352 197.87092 156.168 206.353812 156.168 214.92 
C 156.168 223.486188 157.855352 231.96908 161.13349 239.883206 
C 164.411628 247.797331 169.216801 254.98878 175.27401 261.04599 
C 181.33122 267.103199 188.522669 271.908372 196.436794 275.18651 
C 204.35092 278.464648 212.833812 280.152 221.4 280.152 
C 229.966188 280.152 238.44908 278.464648 246.363206 275.18651 
C 254.277331 271.908372 261.46878 267.103199 267.52599 261.04599 
C 273.583199 254.98878 278.388372 247.797331 281.66651 239.883206 
C 284.944648 231.96908 286.632 223.486188 286.632 214.92 
" clip-path="url(#pd088721c9f)" style="fill: none; stroke: #b0b0b0; stroke-width: 0.8; stroke-linecap: square"/>
     </g>
     <g id="text_8">
      <!-- 0.4 -->
      <g transform="translate(281.66651 187.877107) scale(0.1 -0.1)">
       <defs>
        <path id="DejaVuSans-34" d="M 2419 4116 
L 825 1625 
L 2419 1625 
L 2419 4116 
z
M 2253 4666 
L 3047 4666 
L 3047 1625 
L 3713 1625 
L 3713 1100 
L 3047 1100 
L 3047 0 
L 2419 0 
L 2419 1100 
L 313 1100 
L 313 1709 
L 2253 4666 
z
" transform="scale(0.015625)"/>
       </defs>
       <use xlink:href="#DejaVuSans-30"/>
       <use xlink:href="#DejaVuSans-2e" x="63.623047"/>
       <use xlink:href="#DejaVuSans-34" x="95.410156"/>
      </g>
     </g>
    </g>
    <g id="ytick_5">
     <g id="line2d_9">
      <path d="M 302.94 214.92 
C 302.94 204.212265 300.83081 193.60865 296.733137 183.715993 
C 292.635464 173.823336 286.628999 164.834025 279.057487 157.262513 
C 271.485975 149.691001 262.496664 143.684536 252.604007 139.586863 
C 242.71135 135.48919 232.107735 133.38 221.4 133.38 
C 210.692265 133.38 200.08865 135.48919 190.195993 139.586863 
C 180.303336 143.684536 171.314025 149.691001 163.742513 157.262513 
C 156.171001 164.834025 150.164536 173.823336 146.066863 183.715993 
C 141.96919 193.60865 139.86 204.212265 139.86 214.92 
C 139.86 225.627735 141.96919 236.23135 146.066863 246.124007 
C 150.164536 256.016664 156.171001 265.005975 163.742513 272.577487 
C 171.314025 280.148999 180.303336 286.155464 190.195993 290.253137 
C 200.08865 294.35081 210.692265 296.46 221.4 296.46 
C 232.107735 296.46 242.71135 294.35081 252.604007 290.253137 
C 262.496664 286.155464 271.485975 280.148999 279.057487 272.577487 
C 286.628999 265.005975 292.635464 256.016664 296.733137 246.124007 
C 300.83081 236.23135 302.94 225.627735 302.94 214.92 
" clip-path="url(#pd088721c9f)" style="fill: none; stroke: #b0b0b0; stroke-width: 0.8; stroke-linecap: square"/>
     </g>
     <g id="text_9">
      <!-- 0.5 -->
      <g transform="translate(296.733137 181.636305) scale(0.1 -0.1)">
       <defs>
        <path id="DejaVuSans-35" d="M 691 4666 
L 3169 4666 
L 3169 4134 
L 1269 4134 
L 1269 2991 
Q 1406 3038 1543 3061 
Q 1681 3084 1819 3084 
Q 2600 3084 3056 2656 
Q 3513 2228 3513 1497 
Q 3513 744 3044 326 
Q 2575 -91 1722 -91 
Q 1428 -91 1123 -41 
Q 819 9 494 109 
L 494 744 
Q 775 591 1075 516 
Q 1375 441 1709 441 
Q 2250 441 2565 725 
Q 2881 1009 2881 1497 
Q 2881 1984 2565 2268 
Q 2250 2553 1709 2553 
Q 1456 2553 1204 2497 
Q 953 2441 691 2322 
L 691 4666 
z
" transform="scale(0.015625)"/>
       </defs>
       <use xlink:href="#DejaVuSans-30"/>
       <use xlink:href="#DejaVuSans-2e" x="63.623047"/>
       <use xlink:href="#DejaVuSans-35" x="95.410156"/>
      </g>
     </g>
    </g>
    <g id="ytick_6">
     <g id="line2d_10">
      <path d="M 319.248 214.92 
C 319.248 202.070718 316.716972 189.34638 311.799764 177.475192 
C 306.882557 165.604003 299.674798 154.81683 290.588984 145.731016 
C 281.50317 136.645202 270.715997 129.437443 258.844808 124.520236 
C 246.97362 119.603028 234.249282 117.072 221.4 117.072 
C 208.550718 117.072 195.82638 119.603028 183.955192 124.520236 
C 172.084003 129.437443 161.29683 136.645202 152.211016 145.731016 
C 143.125202 154.81683 135.917443 165.604003 131.000236 177.475192 
C 126.083028 189.34638 123.552 202.070718 123.552 214.92 
C 123.552 227.769282 126.083028 240.49362 131.000236 252.364808 
C 135.917443 264.235997 143.125202 275.02317 152.211016 284.108984 
C 161.29683 293.194798 172.084003 300.402557 183.955192 305.319764 
C 195.82638 310.236972 208.550718 312.768 221.4 312.768 
C 234.249282 312.768 246.97362 310.236972 258.844808 305.319764 
C 270.715997 300.402557 281.50317 293.194798 290.588984 284.108984 
C 299.674798 275.02317 306.882557 264.235997 311.799764 252.364808 
C 316.716972 240.49362 319.248 227.769282 319.248 214.92 
" clip-path="url(#pd088721c9f)" style="fill: none; stroke: #b0b0b0; stroke-width: 0.8; stroke-linecap: square"/>
     </g>
     <g id="text_10">
      <!-- 0.6 -->
      <g transform="translate(311.799764 175.395504) scale(0.1 -0.1)">
       <defs>
        <path id="DejaVuSans-36" d="M 2113 2584 
Q 1688 2584 1439 2293 
Q 1191 2003 1191 1497 
Q 1191 994 1439 701 
Q 1688 409 2113 409 
Q 2538 409 2786 701 
Q 3034 994 3034 1497 
Q 3034 2003 2786 2293 
Q 2538 2584 2113 2584 
z
M 3366 4563 
L 3366 3988 
Q 3128 4100 2886 4159 
Q 2644 4219 2406 4219 
Q 1781 4219 1451 3797 
Q 1122 3375 1075 2522 
Q 1259 2794 1537 2939 
Q 1816 3084 2150 3084 
Q 2853 3084 3261 2657 
Q 3669 2231 3669 1497 
Q 3669 778 3244 343 
Q 2819 -91 2113 -91 
Q 1303 -91 875 529 
Q 447 1150 447 2328 
Q 447 3434 972 4092 
Q 1497 4750 2381 4750 
Q 2619 4750 2861 4703 
Q 3103 4656 3366 4563 
z
" transform="scale(0.015625)"/>
       </defs>
       <use xlink:href="#DejaVuSans-30"/>
       <use xlink:href="#DejaVuSans-2e" x="63.623047"/>
       <use xlink:href="#DejaVuSans-36" x="95.410156"/>
      </g>
     </g>
    </g>
    <g id="ytick_7">
     <g id="line2d_11">
      <path d="M 335.556 214.92 
C 335.556 199.929171 332.603134 185.08411 326.866392 171.23439 
C 321.12965 157.38467 312.720598 144.799635 302.120482 134.199518 
C 291.520365 123.599402 278.93533 115.19035 265.08561 109.453608 
C 251.23589 103.716866 236.390829 100.764 221.4 100.764 
C 206.409171 100.764 191.56411 103.716866 177.71439 109.453608 
C 163.86467 115.19035 151.279635 123.599402 140.679518 134.199518 
C 130.079402 144.799635 121.67035 157.38467 115.933608 171.23439 
C 110.196866 185.08411 107.244 199.929171 107.244 214.92 
C 107.244 229.910829 110.196866 244.75589 115.933608 258.60561 
C 121.67035 272.45533 130.079402 285.040365 140.679518 295.640482 
C 151.279635 306.240598 163.86467 314.64965 177.71439 320.386392 
C 191.56411 326.123134 206.409171 329.076 221.4 329.076 
C 236.390829 329.076 251.23589 326.123134 265.08561 320.386392 
C 278.93533 314.64965 291.520365 306.240598 302.120482 295.640482 
C 312.720598 285.040365 321.12965 272.45533 326.866392 258.60561 
C 332.603134 244.75589 335.556 229.910829 335.556 214.92 
" clip-path="url(#pd088721c9f)" style="fill: none; stroke: #b0b0b0; stroke-width: 0.8; stroke-linecap: square"/>
     </g>
     <g id="text_11">
      <!-- 0.7 -->
      <g transform="translate(326.866392 169.154703) scale(0.1 -0.1)">
       <defs>
        <path id="DejaVuSans-37" d="M 525 4666 
L 3525 4666 
L 3525 4397 
L 1831 0 
L 1172 0 
L 2766 4134 
L 525 4134 
L 525 4666 
z
" transform="scale(0.015625)"/>
       </defs>
       <use xlink:href="#DejaVuSans-30"/>
       <use xlink:href="#DejaVuSans-2e" x="63.623047"/>
       <use xlink:href="#DejaVuSans-37" x="95.410156"/>
      </g>
     </g>
    </g>
    <g id="ytick_8">
     <g id="line2d_12">
      <path d="M 351.864 214.92 
C 351.864 197.787624 348.489296 180.82184 341.933019 164.993589 
C 335.376743 149.165338 325.766398 134.78244 313.651979 122.668021 
C 301.53756 110.553602 287.154662 100.943257 271.326411 94.386981 
C 255.49816 87.830704 238.532376 84.456 221.4 84.456 
C 204.267624 84.456 187.30184 87.830704 171.473589 94.386981 
C 155.645338 100.943257 141.26244 110.553602 129.148021 122.668021 
C 117.033602 134.78244 107.423257 149.165338 100.866981 164.993589 
C 94.310704 180.82184 90.936 197.787624 90.936 214.92 
C 90.936 232.052376 94.310704 249.01816 100.866981 264.846411 
C 107.423257 280.674662 117.033602 295.05756 129.148021 307.171979 
C 141.26244 319.286398 155.645338 328.896743 171.473589 335.453019 
C 187.30184 342.009296 204.267624 345.384 221.4 345.384 
C 238.532376 345.384 255.49816 342.009296 271.326411 335.453019 
C 287.154662 328.896743 301.53756 319.286398 313.651979 307.171979 
C 325.766398 295.05756 335.376743 280.674662 341.933019 264.846411 
C 348.489296 249.01816 351.864 232.052376 351.864 214.92 
" clip-path="url(#pd088721c9f)" style="fill: none; stroke: #b0b0b0; stroke-width: 0.8; stroke-linecap: square"/>
     </g>
     <g id="text_12">
      <!-- 0.8 -->
      <g transform="translate(341.933019 162.913901) scale(0.1 -0.1)">
       <defs>
        <path id="DejaVuSans-38" d="M 2034 2216 
Q 1584 2216 1326 1975 
Q 1069 1734 1069 1313 
Q 1069 891 1326 650 
Q 1584 409 2034 409 
Q 2484 409 2743 651 
Q 3003 894 3003 1313 
Q 3003 1734 2745 1975 
Q 2488 2216 2034 2216 
z
M 1403 2484 
Q 997 2584 770 2862 
Q 544 3141 544 3541 
Q 544 4100 942 4425 
Q 1341 4750 2034 4750 
Q 2731 4750 3128 4425 
Q 3525 4100 3525 3541 
Q 3525 3141 3298 2862 
Q 3072 2584 2669 2484 
Q 3125 2378 3379 2068 
Q 3634 1759 3634 1313 
Q 3634 634 3220 271 
Q 2806 -91 2034 -91 
Q 1263 -91 848 271 
Q 434 634 434 1313 
Q 434 1759 690 2068 
Q 947 2378 1403 2484 
z
M 1172 3481 
Q 1172 3119 1398 2916 
Q 1625 2713 2034 2713 
Q 2441 2713 2670 2916 
Q 2900 3119 2900 3481 
Q 2900 3844 2670 4047 
Q 2441 4250 2034 4250 
Q 1625 4250 1398 4047 
Q 1172 3844 1172 3481 
z
" transform="scale(0.015625)"/>
       </defs>
       <use xlink:href="#DejaVuSans-30"/>
       <use xlink:href="#DejaVuSans-2e" x="63.623047"/>
       <use xlink:href="#DejaVuSans-38" x="95.410156"/>
      </g>
     </g>
    </g>
    <g id="ytick_9">
     <g id="line2d_13">
      <path d="M 368.172 214.92 
C 368.172 195.646078 364.375458 176.55957 356.999647 158.752787 
C 349.623836 140.946005 338.812198 124.765245 325.183476 111.136524 
C 311.554755 97.507802 295.373995 86.696164 277.567213 79.320353 
C 259.76043 71.944542 240.673922 68.148 221.4 68.148 
C 202.126078 68.148 183.03957 71.944542 165.232787 79.320353 
C 147.426005 86.696164 131.245245 97.507802 117.616524 111.136524 
C 103.987802 124.765245 93.176164 140.946005 85.800353 158.752787 
C 78.424542 176.55957 74.628 195.646078 74.628 214.92 
C 74.628 234.193922 78.424542 253.28043 85.800353 271.087213 
C 93.176164 288.893995 103.987802 305.074755 117.616524 318.703476 
C 131.245245 332.332198 147.426005 343.143836 165.232787 350.519647 
C 183.03957 357.895458 202.126078 361.692 221.4 361.692 
C 240.673922 361.692 259.76043 357.895458 277.567213 350.519647 
C 295.373995 343.143836 311.554755 332.332198 325.183476 318.703476 
C 338.812198 305.074755 349.623836 288.893995 356.999647 271.087213 
C 364.375458 253.28043 368.172 234.193922 368.172 214.92 
" clip-path="url(#pd088721c9f)" style="fill: none; stroke: #b0b0b0; stroke-width: 0.8; stroke-linecap: square"/>
     </g>
     <g id="text_13">
      <!-- 0.9 -->
      <g transform="translate(356.999647 156.6731) scale(0.1 -0.1)">
       <defs>
        <path id="DejaVuSans-39" d="M 703 97 
L 703 672 
Q 941 559 1184 500 
Q 1428 441 1663 441 
Q 2288 441 2617 861 
Q 2947 1281 2994 2138 
Q 2813 1869 2534 1725 
Q 2256 1581 1919 1581 
Q 1219 1581 811 2004 
Q 403 2428 403 3163 
Q 403 3881 828 4315 
Q 1253 4750 1959 4750 
Q 2769 4750 3195 4129 
Q 3622 3509 3622 2328 
Q 3622 1225 3098 567 
Q 2575 -91 1691 -91 
Q 1453 -91 1209 -44 
Q 966 3 703 97 
z
M 1959 2075 
Q 2384 2075 2632 2365 
Q 2881 2656 2881 3163 
Q 2881 3666 2632 3958 
Q 2384 4250 1959 4250 
Q 1534 4250 1286 3958 
Q 1038 3666 1038 3163 
Q 1038 2656 1286 2365 
Q 1534 2075 1959 2075 
z
" transform="scale(0.015625)"/>
       </defs>
       <use xlink:href="#DejaVuSans-30"/>
       <use xlink:href="#DejaVuSans-2e" x="63.623047"/>
       <use xlink:href="#DejaVuSans-39" x="95.410156"/>
      </g>
     </g>
    </g>
    <g id="ytick_10">
     <g id="line2d_14">
      <path d="M 384.48 214.92 
C 384.48 193.504531 380.261619 172.2973 372.066274 152.511986 
C 363.870929 132.726672 351.857997 114.74805 336.714974 99.605026 
C 321.57195 84.462003 303.593328 72.449071 283.808014 64.253726 
C 264.0227 56.058381 242.815469 51.84 221.4 51.84 
C 199.984531 51.84 178.7773 56.058381 158.991986 64.253726 
C 139.206672 72.449071 121.22805 84.462003 106.085026 99.605026 
C 90.942003 114.74805 78.929071 132.726672 70.733726 152.511986 
C 62.538381 172.2973 58.32 193.504531 58.32 214.92 
C 58.32 236.335469 62.538381 257.5427 70.733726 277.328014 
C 78.929071 297.113328 90.942003 315.09195 106.085026 330.234974 
C 121.22805 345.377997 139.206672 357.390929 158.991986 365.586274 
C 178.7773 373.781619 199.984531 378 221.4 378 
C 242.815469 378 264.0227 373.781619 283.808014 365.586274 
C 303.593328 357.390929 321.57195 345.377997 336.714974 330.234974 
C 351.857997 315.09195 363.870929 297.113328 372.066274 277.328014 
C 380.261619 257.5427 384.48 236.335469 384.48 214.92 
" clip-path="url(#pd088721c9f)" style="fill: none; stroke: #b0b0b0; stroke-width: 0.8; stroke-linecap: square"/>
     </g>
     <g id="text_14">
      <!-- 1.0 -->
      <g transform="translate(372.066274 150.432298) scale(0.1 -0.1)">
       <use xlink:href="#DejaVuSans-31"/>
       <use xlink:href="#DejaVuSans-2e" x="63.623047"/>
       <use xlink:href="#DejaVuSans-30" x="95.410156"/>
      </g>
     </g>
    </g>
   </g>
   <g id="line2d_15">
    <path d="M 329.0328 214.92 
L 153.7218 97.697919 
L 194.4918 261.52637 
L 329.0328 214.92 
" clip-path="url(#pd088721c9f)" style="fill: none; stroke: #1f77b4; stroke-width: 1.5; stroke-linecap: square"/>
    <defs>
     <path id="m0137ce4490" d="M 0 3 
C 0.795609 3 1.55874 2.683901 2.12132 2.12132 
C 2.683901 1.55874 3 0.795609 3 0 
C 3 -0.795609 2.683901 -1.55874 2.12132 -2.12132 
C 1.55874 -2.683901 0.795609 -3 0 -3 
C -0.795609 -3 -1.55874 -2.683901 -2.12132 -2.12132 
C -2.683901 -1.55874 -3 -0.795609 -3 0 
C -3 0.795609 -2.683901 1.55874 -2.12132 2.12132 
C -1.55874 2.683901 -0.795609 3 0 3 
z
" style="stroke: #1f77b4"/>
    </defs>
    <g clip-path="url(#pd088721c9f)">
     <use xlink:href="#m0137ce4490" x="329.0328" y="214.92" style="fill: #1f77b4; stroke: #1f77b4"/>
     <use xlink:href="#m0137ce4490" x="153.7218" y="97.697919" style="fill: #1f77b4; stroke: #1f77b4"/>
     <use xlink:href="#m0137ce4490" x="194.4918" y="261.52637" style="fill: #1f77b4; stroke: #1f77b4"/>
     <use xlink:href="#m0137ce4490" x="329.0328" y="214.92" style="fill: #1f77b4; stroke: #1f77b4"/>
    </g>
   </g>
   <g id="patch_4">
    <path d="M 384.48 214.92 
C 384.48 193.504531 380.261619 172.2973 372.066274 152.511986 
C 363.870929 132.726672 351.857997 114.74805 336.714974 99.605026 
C 321.57195 84.462003 303.593328 72.449071 283.808014 64.253726 
C 264.0227 56.058381 242.815469 51.84 221.4 51.84 
C 199.984531 51.84 178.7773 56.058381 158.991986 64.253726 
C 139.206672 72.449071 121.22805 84.462003 106.085026 99.605026 
C 90.942003 114.74805 78.929071 132.726672 70.733726 152.511986 
C 62.538381 172.2973 58.32 193.504531 58.32 214.92 
C 58.32 236.335469 62.538381 257.5427 70.733726 277.328014 
C 78.929071 297.113328 90.942003 315.09195 106.085026 330.234974 
C 121.22805 345.377997 139.206672 357.390929 158.991986 365.586274 
C 178.7773 373.781619 199.984531 378 221.4 378 
C 242.815469 378 264.0227 373.781619 283.808014 365.586274 
C 303.593328 357.390929 321.57195 345.377997 336.714974 330.234974 
C 351.857997 315.09195 363.870929 297.113328 372.066274 277.328014 
C 380.261619 257.5427 384.48 236.335469 384.48 214.92 
" style="fill: none; stroke: #000000; stroke-width: 0.8; stroke-linejoin: miter; stroke-linecap: square"/>
   </g>
   <g id="text_15">
    <!-- Dimensions -->
    <g transform="translate(163.0375 45.84) scale(0.2 -0.2)">
     <use xlink:href="#DejaVuSans-44"/>
     <use xlink:href="#DejaVuSans-69" x="77.001953"/>
     <use xlink:href="#DejaVuSans-6d" x="104.785156"/>
     <use xlink:href="#DejaVuSans-65" x="202.197266"/>
     <use xlink:href="#DejaVuSans-6e" x="263.720703"/>
     <use xlink:href="#DejaVuSans-73" x="327.099609"/>
     <use xlink:href="#DejaVuSans-69" x="379.199219"/>
     <use xlink:href="#DejaVuSans-6f" x="406.982422"/>
     <use xlink:href="#DejaVuSans-6e" x="468.164062"/>
     <use xlink:href="#DejaVuSans-73" x="531.542969"/>
    </g>
   </g>
  </g>
 </g>
 <defs>
  <clipPath id="pd088721c9f">
   <path d="M 384.48 214.92 
C 384.48 193.504531 380.261619 172.2973 372.066274 152.511986 
C 363.870929 132.726672 351.857997 114.74805 336.714974 99.605026 
C 321.57195 84.462003 303.593328 72.449071 283.808014 64.253726 
C 264.0227 56.058381 242.815469 51.84 221.4 51.84 
C 199.984531 51.84 178.7773 56.058381 158.991986 64.253726 
C 139.206672 72.449071 121.22805 84.462003 106.085026 99.605026 
C 90.942003 114.74805 78.929071 132.726672 70.733726 152.511986 
C 62.538381 172.2973 58.32 193.504531 58.32 214.92 
C 58.32 236.335469 62.538381 257.5427 70.733726 277.328014 
C 78.929071 297.113328 90.942003 315.09195 106.085026 330.234974 
C 121.22805 345.377997 139.206672 357.390929 158.991986 365.586274 
C 178.7773 373.781619 199.984531 378 221.4 378 
C 242.815469 378 264.0227 373.781619 283.808014 365.586274 
C 303.593328 357.390929 321.57195 345.377997 336.714974 330.234974 
C 351.857997 315.09195 363.870929 297.113328 372.066274 277.328014 
C 380.261619 257.5427 384.48 236.335469 384.48 214.92 
M 221.4 214.92 
C 221.4 214.92 221.4 214.92 221.4 214.92 
C 221.4 214.92 221.4 214.92 221.4 214.92 
C 221.4 214.92 221.4 214.92 221.4 214.92 
C 221.4 214.92 221.4 214.92 221.4 214.92 
C 221.4 214.92 221.4 214.92 221.4 214.92 
C 221.4 214.92 221.4 214.92 221.4 214.92 
C 221.4 214.92 221.4 214.92 221.4 214.92 
C 221.4 214.92 221.4 214.92 221.4 214.92 
C 221.4 214.92 221.4 214.92 221.4 214.92 
C 221.4 214.92 221.4 214.92 221.4 214.92 
C 221.4 214.92 221.4 214.92 221.4 214.92 
C 221.4 214.92 221.4 214.92 221.4 214.92 
C 221.4 214.92 221.4 214.92 221.4 214.92 
C 221.4 214.92 221.4 214.92 221.4 214.92 
C 221.4 214.92 221.4 214.92 221.4 214.92 
C 221.4 214.92 221.4 214.92 221.4 214.92 
z
"/>
  </clipPath>
 </defs>
</svg>
